<?xml version="1.0" encoding="UTF-8" standalone="no"?>
<!-- Created with Inkscape (http://www.inkscape.org/) -->

<svg
   version="1.1"
   id="svg1"
   width="589"
   height="547"
   viewBox="0 0 589 547"
   xmlns:xlink="http://www.w3.org/1999/xlink"
   xmlns="http://www.w3.org/2000/svg"
   xmlns:svg="http://www.w3.org/2000/svg">
  <defs
     id="defs1">
    <linearGradient
       id="linearGradient8">
      <stop
         style="stop-color:#000000;stop-opacity:1;"
         offset="0"
         id="stop8" />
      <stop
         style="stop-color:#000000;stop-opacity:0;"
         offset="1"
         id="stop9" />
    </linearGradient>
    <linearGradient
       xlink:href="#linearGradient8"
       id="linearGradient9"
       x1="132.66669"
       y1="440.42407"
       x2="557.89376"
       y2="440.42407"
       gradientUnits="userSpaceOnUse" />
  </defs>
  <g
     id="g1">
    <path
       id="path8"
       style="display:inline;fill:#000000"
       d="M 294.41406 27.888672 C 291.46169 27.932592 288.50744 28.158582 288.13477 28.53125 C 288.12873 28.537284 288.12373 28.544801 288.12109 28.550781 C 288.12075 28.551776 288.11939 28.555647 288.11914 28.556641 C 288.11898 28.557633 288.11921 28.56151 288.11914 28.5625 C 288.11917 28.563489 288.11902 28.567372 288.11914 28.568359 C 288.11935 28.569345 288.12079 28.573235 288.12109 28.574219 C 288.21594 28.810882 290.96188 29 294.5 29 C 298.25833 29 301.03781 28.705778 300.67773 28.345703 C 300.31599 27.98396 297.36644 27.844751 294.41406 27.888672 z M 263.94141 29 C 263.42387 29 263 29.45 263 30 C 263 30.55 263.70113 31 264.55859 31 C 265.41607 31 265.83992 30.55 265.5 30 C 265.16008 29.45 264.45895 29 263.94141 29 z M 274 29.128906 C 273.54688 29.128906 273.09375 29.199185 272.75 29.337891 C 272.0625 29.615304 272.625 29.841797 274 29.841797 C 275.375 29.841797 275.9375 29.615304 275.25 29.337891 C 274.90625 29.199185 274.45312 29.128906 274 29.128906 z M 245.66211 32.482422 C 245.26294 32.503767 245 32.698288 245 33.03125 C 245 33.563988 245.675 34 246.5 34 C 247.325 34 248 33.823578 248 33.607422 C 248 33.391266 247.325 32.955254 246.5 32.638672 C 246.19062 32.519953 245.90161 32.469615 245.66211 32.482422 z M 237.91602 35.123047 C 237.56862 35.108737 237.17343 35.171971 236.8125 35.316406 C 236.01477 35.635632 236.25107 35.873895 237.41602 35.921875 C 238.47018 35.965296 239.06081 35.728776 238.72852 35.396484 C 238.56237 35.230337 238.26341 35.137356 237.91602 35.123047 z M 229.91602 37.123047 C 229.56862 37.108737 229.17343 37.171971 228.8125 37.316406 C 228.01477 37.635632 228.25107 37.873895 229.41602 37.921875 C 230.47018 37.965296 231.06081 37.728776 230.72852 37.396484 C 230.56237 37.230337 230.26341 37.137356 229.91602 37.123047 z M 214.22656 42.056641 C 213.69484 42.064382 212.48357 42.34599 210.50781 42.998047 C 208.51315 43.656344 206.34414 44.306866 205.68945 44.445312 C 204.30331 44.738436 202.12762 45.576368 196.25 48.078125 C 193.98555 49.041969 192.12025 49.675186 192.00586 49.523438 L 192.00391 49.521484 L 192.00391 49.519531 L 192.00195 49.517578 L 192.00195 49.515625 L 192 49.513672 C 191.99977 49.51214 192 49.507495 192 49.505859 C 192 49.296446 184.6875 52.831035 175.75 57.359375 C 160.12398 65.276573 157.58359 66.766758 146.5 74.523438 C 143.75 76.447982 139.81827 79.145095 137.76367 80.515625 C 133.69489 83.229727 117.29673 97.591386 112.49219 102.64844 C 96.137591 119.86262 88.125412 129.99606 77.423828 147 C 70.505646 157.99242 59.884716 179.52895 56.689453 189.04492 C 55.849934 191.54513 54.48285 195.14513 53.652344 197.04492 C 52.821839 198.94471 50.950116 205.225 49.492188 211 C 48.034259 216.775 46.368677 223.3 45.791016 225.5 C 44.686856 229.70515 44.415074 231.37746 43.519531 239.5 C 43.216333 242.25 42.675655 246.075 42.318359 248 C 41.114851 254.48412 40.43034 291.58455 41.429688 296.17578 C 41.707925 297.45407 42.166386 301.66652 42.447266 305.53711 C 42.728146 309.4077 43.914023 317.0577 45.082031 322.53711 C 46.250039 328.01652 47.580608 334.3 48.039062 336.5 C 48.497516 338.7 49.795787 343.425 50.923828 347 C 52.051868 350.575 52.979228 354.68501 52.986328 356.13281 C 52.997372 358.38628 41.035416 389.25529 28.007812 420.5918 C 23.24289 432.05331 22.570646 435.16657 23.951172 439.34961 C 25.964504 445.45006 28.978537 447.27156 37.917969 447.78906 C 53.787054 448.70771 58.746548 446.33838 62.291016 436.14844 L 64.082031 431 L 75.806641 431 L 87.53125 431 L 89.324219 436.05078 C 90.31074 438.82839 92.342259 442.47235 93.839844 444.14844 C 96.25717 446.85389 97.345042 447.25333 103.53125 447.71094 C 110.40064 448.21909 110.58505 448.30728 116.5 453.96094 C 133.6724 470.37474 155.87856 485.87722 176.5 495.84766 C 183.65 499.30468 190.28129 502.55304 191.23633 503.06641 C 192.19137 503.57979 193.37493 504 193.86523 504 C 194.35552 504 196.49728 504.75397 198.62695 505.67578 C 200.75661 506.59759 203.36504 507.50617 204.42188 507.69531 C 205.4787 507.88445 206.82871 508.42875 207.42188 508.9043 C 208.01504 509.37984 210.075 510.1279 212 510.56641 C 213.925 511.00492 215.95 511.49642 216.5 511.6582 C 220.9523 512.96785 228.86788 515.10963 230.5 515.44727 C 249.61985 519.40253 251.58893 519.67665 267.5 520.57617 C 274.1 520.94929 279.66575 521.40077 279.86914 521.58008 C 280.51131 522.14626 302.08204 521.06684 312.5 519.94727 C 318 519.35621 324.075 518.71577 326 518.52344 C 327.925 518.3311 329.6125 518.07741 329.75 517.96094 C 329.8875 517.84447 330.7875 517.65532 331.75 517.53906 C 332.7125 517.42281 334.175 517.06244 335 516.73828 C 335.825 516.41411 337.85 515.93598 339.5 515.67578 C 341.15 515.41557 343.625 514.9096 345 514.55078 C 346.375 514.19196 348.625 513.67871 350 513.41211 C 351.375 513.14551 354.075 512.40011 356 511.75586 C 357.925 511.11161 359.725 510.52848 360 510.45898 C 361.78337 510.008 366 507.96259 366 507.54883 C 366 507.27383 364.7625 507.52005 363.25 508.0957 C 360.27245 509.22893 350.62639 511.55071 345 512.48828 C 343.075 512.80906 340.825 513.25476 340 513.47852 C 339.175 513.70227 336.06866 514.17514 333.09766 514.5293 C 330.12666 514.88347 326.75166 515.36692 325.59766 515.60352 C 319.4891 516.85591 291.05455 517.16111 279 516.10352 C 257.35576 514.2046 231.56568 508.42442 211.5 500.97461 C 202.00362 497.44888 181.1383 487.18216 173.71875 482.38477 C 169.9891 479.97323 166.70785 478 166.42773 478 C 165.93511 478 160.01431 474.01431 159 473 C 158.725 472.725 156.25 470.93342 153.5 469.01758 C 146.75859 464.32103 144.30772 462.28969 132.7168 451.79883 C 125.4186 445.19328 125.01861 444.62066 126.30859 442.62695 C 127.06531 441.45742 127.98885 439.2625 128.36133 437.75 C 129.02369 435.0605 129.2006 435 136.39844 435 C 143.62709 435 143.77996 435.05228 144.99609 437.98828 C 145.67708 439.63234 147.88873 442.47472 149.91211 444.30273 C 159.95671 453.37742 176.53201 450.71877 183.24805 438.95703 C 184.48611 436.78883 185.9643 435.01181 186.53125 435.00781 C 187.09821 435.00358 188.22321 436.87248 189.03125 439.16016 C 191.43069 445.95329 194.42521 447.44927 206.32031 447.80078 C 218.67035 448.16574 222.23348 446.70993 225.6543 439.89648 C 227.85649 435.51026 227.87339 435.49894 234.17969 435 C 237.65551 434.725 243.50365 434.64715 247.17383 434.82812 C 253.81971 435.15584 253.8517 435.17212 255.32422 438.82812 C 257.99772 445.46599 260.93321 447.26894 269.91797 447.78906 C 281.38288 448.45275 286.36941 447.47825 289.98242 443.86523 C 291.64255 442.20511 293 439.94625 293 438.8457 C 293 437.09096 293.50721 437.27718 297.11719 440.36719 C 304.32797 446.53935 307.91159 447.3014 331.91992 447.76367 C 343.70063 447.9905 355.24883 447.89091 357.58203 447.54102 C 362.48025 446.80649 366.84339 443.03304 367.68945 438.80273 L 368.24805 436.00977 L 371.63672 438.98633 C 379.31968 445.73206 388.07525 447.96357 406.93164 447.98438 C 426.01649 448.00537 434.25338 445.73332 441.88672 438.33984 C 445.76922 434.57934 448.19395 433 450.08594 433 C 452.49025 433 452.84155 433.45758 453.42578 437.35352 C 454.13201 442.06301 456.74755 445.57298 460.66016 447.06055 C 462.01815 447.57686 466.97049 448 471.66406 448 C 485.5204 448 489.80542 444.56226 490.25977 433.08008 C 490.3921 429.73632 490.58616 427.00012 490.69141 427 C 490.79666 426.99989 492.33946 429.7313 494.11914 433.07031 C 501.09273 446.1541 512.9859 451.63048 526.36328 447.91602 C 531.29605 446.54636 538.23839 439.48375 539.81055 434.23633 C 540.64168 431.46228 541 418.45761 541 391.03516 C 541 348.39427 540.84479 347.0954 535.35156 343.49609 C 531.98455 341.28995 520.49064 340.4429 514.24414 341.94141 C 506.09828 343.89557 503.84034 347.49637 503.77734 358.63867 L 503.74023 365.11914 L 500.36523 358.13867 C 493.60495 344.16276 482.50811 338.5782 468.50781 342.10352 C 463.89047 343.26618 457.94676 348.31163 455.37891 353.25 C 454.59244 354.7625 453.3938 356 452.7168 356 C 449.53136 356 445.19013 353.98816 442.06445 351.06445 C 440.17516 349.29723 437.00372 347.02206 435.01562 346.00781 C 425.65974 341.2348 403.75028 339.58805 389.30273 342.57227 C 381.76761 344.12869 371.41098 343.7627 372.51367 341.97852 C 372.79717 341.5198 372.23416 340.89943 371.26367 340.59961 C 368.03237 339.60133 315.6035 330.99837 308.86719 330.36133 L 302.23633 329.73438 L 301.61719 325.22852 C 299.97014 313.21201 301.49178 297.00486 305.08594 288.28516 C 306.04416 285.96044 306.13464 284.3002 305.41016 282.28516 C 304.29604 279.18636 306.54755 272.02837 308.64258 272.00977 C 309.27124 272.00418 310.00408 271.43395 310.26953 270.74219 C 310.53498 270.05043 313.16911 268.63347 316.125 267.59375 C 319.08089 266.55404 321.95 265.38243 322.5 264.99023 C 323.05 264.59802 325.13851 264.02569 327.14062 263.71875 C 330.24234 263.24323 331.195 263.59262 333.57812 266.08008 C 336.64968 269.28609 337.96307 269.63654 339.84961 267.75 C 340.53711 267.0625 341.64078 266.49082 342.30078 266.47852 C 342.96078 266.46618 343.36864 265.67868 343.20703 264.72852 C 342.84498 262.59992 345.30002 262.45165 347 264.5 C 348.77582 266.63974 350.32647 266.35379 349.71094 264 C 349.24595 262.22188 349.67957 262 353.625 262 C 356.68019 262 358.24542 262.47514 358.64844 263.52539 C 359.0504 264.5729 359.60411 264.74186 360.41797 264.06641 C 361.63943 263.05269 366 263.70898 366 264.90625 C 366 265.27629 367.2375 265.56076 368.75 265.53906 C 370.48794 265.51415 371.54967 266.05204 371.63477 267 C 371.70883 267.825 371.82137 269.0625 371.88477 269.75 C 371.94821 270.4375 372.61929 271 373.37695 271 C 374.1346 271 375.31531 271.675 376 272.5 C 376.8601 273.53636 376.89856 274 376.12305 274 C 374.26675 274 374.88451 276.35802 377.35547 278.69922 C 380.12204 281.32097 383.57584 281.32423 387 278.70898 C 389.48063 276.81436 389.50344 276.81663 389.82617 278.94336 C 390.084 280.64239 390.60064 280.94362 392.31836 280.39844 C 394.13864 279.8207 394.28956 279.94477 393.26953 281.17383 C 392.60168 281.97854 391.44919 284.08257 390.70703 285.84766 L 389.35742 289.05664 L 377.67773 283.04883 C 371.25456 279.74528 366 277.43298 366 277.9082 C 366 278.38343 366.67011 280.0594 367.48828 281.63477 C 368.36875 283.33007 368.57281 284.63669 367.98828 284.83398 C 366.17377 285.44642 366.97212 287.64712 369.5 289 C 370.875 289.73588 372 290.88161 372 291.54492 C 372 293.46089 378.14752 294.2802 379.83789 292.58984 C 381.09075 291.33697 381.75923 291.45428 384.98438 293.49023 C 387.02266 294.77695 389.32297 295.79751 390.0957 295.75781 C 395.0216 295.5045 398 296.1343 398 297.43164 C 398 299.19263 400.37729 299.99598 407.06836 300.49414 C 412.02938 300.8635 412.19464 300.79379 411.75391 298.48828 C 411.50271 297.17419 411.5674 296.12997 411.89844 296.16797 C 414.15569 296.42693 415.14082 295.80827 414.62305 294.45898 C 414.22311 293.41675 414.54915 293.01262 415.63281 293.20898 C 418.02118 293.64175 419.92754 290.2227 418 288.96289 C 414.87223 286.91864 411.58103 286.75537 406.96289 288.41602 C 402.08104 290.17151 395.02673 290.75129 393.09375 289.55664 C 391.86086 288.79467 391.59874 286.93736 392.75 287.11914 C 394.8363 287.44856 396 286.84324 396 285.43164 C 396 284.34228 396.58448 284.05002 397.91602 284.47266 C 398.96974 284.8071 400.11042 284.62948 400.45117 284.07812 C 400.86436 283.40955 401.9653 283.41689 403.75586 284.09766 C 405.90941 284.91644 406.6812 284.78978 407.6543 283.45898 C 408.32155 282.54646 409.29603 282.06465 409.82031 282.38867 C 411.08669 283.17134 413.34997 280.37401 412.52734 279.04297 C 412.17253 278.46888 412.35895 278 412.94141 278 C 413.52387 278 414 278.675 414 279.5 C 414 281.49454 415.90078 281.40112 418.23242 279.29102 C 420.03318 277.66136 420.23477 277.72709 422.55469 280.69141 C 425.47066 284.41729 431 286.80578 431 284.33984 C 431 283.1585 431.63449 282.94231 433.63086 283.44336 C 435.94556 284.02432 436.19329 283.84971 435.70703 281.99023 C 435.36336 280.67604 435.69344 279.67152 436.57812 279.33203 C 438.80329 278.47815 438.24777 276.04468 435.59766 275.03711 C 432.38191 273.81449 431.91857 272.83274 433.52148 270.64062 C 434.61851 269.14036 435.84108 268.88595 440.19531 269.25391 C 443.12797 269.50174 446.96245 270.44537 448.71484 271.35156 C 450.46723 272.25776 452.79577 273 453.89062 273 C 456.92161 273 457.64746 270.84229 455.16992 269.19727 C 453.97604 268.40456 453 266.90107 453 265.85547 C 453 264.05125 453.12901 264.03932 455.53125 265.61328 C 458.31611 267.43798 459.36694 267.12081 458.45117 264.73438 C 457.70201 262.78206 452.5344 260.58155 450.51758 261.35547 C 448.40049 262.16788 448.60795 260.26088 450.75 259.21875 C 452.99278 258.12761 454.88328 258.23328 455.78711 259.5 C 457.23297 261.52636 463.07248 265.07342 464.00977 264.49414 C 464.58874 264.13631 464.35712 262.95052 463.43359 261.54102 C 461.47799 258.5564 462.82278 257.67702 466.45703 259.5625 C 468.49 260.61721 469.6283 260.72454 470.5625 259.94922 C 471.51912 259.1553 472.90685 259.57237 475.90234 261.55469 C 478.12863 263.02798 480.63599 263.97025 481.47461 263.64844 C 483.23126 262.97435 483.55778 260 481.875 260 C 481.17604 260 480.96243 258.9398 481.31055 257.19922 C 481.78027 254.85059 481.28008 253.9255 478.2207 251.48438 C 474.58044 248.57973 474.57726 248.57079 477.03516 247.99609 C 478.82037 247.57867 479.59035 246.6399 479.82812 244.58789 C 480.00862 243.03014 479.69602 241.29563 479.13281 240.73242 C 478.56961 240.16922 478.36573 238.42331 478.67969 236.85352 C 479.0726 234.88895 478.84537 234 477.95312 234 C 477.24018 234 475.83186 233.25156 474.82227 232.33789 C 473.81268 231.42423 471.30357 230.61828 469.24805 230.54688 C 466.58404 230.45436 465.41624 229.92718 465.18164 228.70898 C 465.00062 227.76903 464.38437 227 463.81055 227 C 463.23671 227 463.00754 226.08229 463.30078 224.96094 C 464.0091 222.25231 460.32705 218.7617 457.65625 219.60938 C 455.88344 220.17203 455.75861 219.87379 456.32227 216.40039 C 456.82105 213.32676 456.52504 212.12307 454.82227 210.31055 C 452.88387 208.24722 452.84941 207.99449 454.41797 207.39258 C 455.36233 207.03019 456.64455 207.24416 457.26758 207.86719 C 458.81938 209.41899 460 209.28802 460 207.56445 C 460 206.77505 458.425 205.55937 456.5 204.86328 C 454.575 204.16719 453 203.01334 453 202.29883 C 453 200.82508 456.11264 200.54303 457.55078 201.88672 C 458.07328 202.3749 459.5125 203.0812 460.75 203.45508 C 462.516 203.98864 463 203.73729 463 202.28906 C 463 201.27423 462.1 199.67427 461 198.73242 C 458.2803 196.40374 458.48594 195.17968 461.5 195.75586 C 464.00411 196.23455 464.9548 194.70741 462.93164 193.45703 C 462.34449 193.09393 462.08401 192.22383 462.35352 191.52148 C 463.69033 188.03781 456.21217 186.68001 452.5957 189.75 C 451.61162 190.58539 451.10933 191.00525 451.02344 190.99805 L 451.02148 190.99805 L 451.01953 190.99609 L 451.01758 190.99609 L 451.01562 190.99609 L 451.01562 190.99414 L 451.01367 190.99219 L 451.01172 190.99023 L 451.01172 190.98828 C 450.99836 190.91276 451.3376 190.46676 451.97852 189.64258 C 453.2613 187.99299 453.21117 187.62811 451.52148 186.39258 C 450.47462 185.62709 448.81423 185 447.83203 185 C 446.84983 185 445.32646 183.90236 444.44727 182.56055 C 443.56809 181.21874 442.24141 180.35341 441.49805 180.63867 C 440.53223 181.00929 440.30601 180.54753 440.70508 179.02148 C 441.04018 177.74009 441.80968 177.09699 442.63086 177.41211 C 443.40611 177.7096 444 177.30066 444 176.46875 C 444 174.6458 444.49082 174.63536 447.28516 176.39648 C 448.50331 177.16422 450.625 178.08988 452 178.45508 C 454.37197 179.08508 454.33292 178.96372 451.23438 176.06055 C 449.43821 174.37761 448.53821 172.99238 449.23438 172.98438 C 449.93055 172.97596 451.11478 172.58018 451.86719 172.10352 C 452.97694 171.4005 452.85686 170.85686 451.22852 169.22852 C 449.24041 167.24041 449.17972 167.2401 444.96094 169.12891 C 442.61816 170.1778 440.59939 170.91485 440.47461 170.76758 C 439.47171 169.58391 439.12341 166.0418 439.95898 165.52539 C 441.64357 164.48426 441.19352 159.28856 439.35742 158.58398 C 438.4537 158.23719 437.93385 157.73217 438.20312 157.46289 C 438.4724 157.19362 440.32267 157.65411 442.31445 158.48633 C 446.58862 160.27219 447 160.3178 447 159 C 447 158.45 446.325 158 445.5 158 C 444.45238 158 444 156.94444 444 154.5 C 444 151.22917 443.79126 151 440.80078 151 C 438.8416 151 437.96915 150.64564 438.55078 150.08594 C 439.7624 148.92001 456.9704 142 458.6582 142 C 459.35613 142 464.10521 147.45682 469.21289 154.12695 L 478.5 166.25586 L 479.27148 152.37695 C 479.69547 144.74432 480.27016 136.6885 480.54883 134.47461 L 481.05469 130.44922 L 497.27734 123.60742 C 506.19968 119.84439 513.85906 116.43605 514.29883 116.0332 C 514.7386 115.63035 507.6511 112.8948 498.54883 109.95508 L 482 104.61133 L 482 86.683594 C 482 70.991331 481.81527 68.908348 480.52344 69.980469 C 479.71171 70.654144 474.88869 76.782893 469.80469 83.601562 C 464.72069 90.420231 459.91263 96 459.12109 96 C 458.32954 96 448.69934 93.055831 437.71875 89.457031 C 426.73816 85.858231 417.54831 83.119666 417.29688 83.371094 C 417.04544 83.622522 422.63648 91.40419 429.72266 100.66406 C 436.80885 109.92393 442.95592 118.07739 443.38281 118.7832 C 444.30891 120.31441 432.7674 136.26958 430.49219 136.60352 C 429.67111 136.72402 429 136.41344 429 135.91211 C 429 135.41077 428.325 135 427.5 135 C 426.675 135 426 134.52387 426 133.94141 C 426 133.35895 426.49283 133.186 427.0957 133.55859 C 427.77697 133.97963 428.05548 133.53038 427.83008 132.36914 C 427.56422 130.99943 426.53803 130.47113 423.98438 130.39062 C 418.39106 130.21433 418.25175 130.13705 418.75586 127.5 C 419.03483 126.04065 418.76898 125 418.11719 125 C 417.50307 125 417.1125 124.4672 417.25 123.81641 C 417.5482 122.40504 413.67633 120.32272 409.5 119.64844 C 407.85 119.38204 406.3875 119.07101 406.25 118.95703 C 406.1125 118.84305 405.58815 118.6937 405.08398 118.625 C 404.57982 118.55625 403.82852 118.1625 403.41602 117.75 C 402.08851 116.42249 399.95689 116.94948 399.21875 118.78711 C 398.5295 120.50302 398.43044 120.50302 396.75 118.78711 C 395.7875 117.8043 395.45 117 396 117 C 398.31878 117 396.77242 114.09892 394.25 113.7168 C 393.31679 113.57543 392.81274 113.47363 392.76758 113.39453 L 392.76562 113.39258 L 392.76562 113.39062 C 392.76544 113.3899 392.76377 113.38548 392.76367 113.38477 L 392.76367 113.38281 L 392.76367 113.38086 L 392.76367 113.37891 L 392.76367 113.37695 L 392.76562 113.375 L 392.76562 113.37305 L 392.76758 113.37109 C 392.83978 113.27747 393.64752 113.21442 395.25 113.15039 C 399.28284 112.98926 400.06128 111.52664 397.25 109.39258 C 394.59391 107.37632 392.1762 107.73395 389.34961 110.56055 C 387.00935 112.9008 386.64213 112.98655 385.06641 111.56055 C 384.11847 110.70267 382.59107 110 381.67188 110 C 380.75268 110 380 109.55 380 109 C 380 108.45 380.43419 108 380.96484 108 C 382.82456 108 384.24157 103.99514 382.9375 102.42383 C 381.56697 100.77245 379 102.20623 379 104.62305 C 379 105.38071 377.9875 106.00763 376.75 106.01562 C 375.5125 106.02404 373.83783 106.45034 373.02734 106.96289 C 372.06729 107.57002 371.30968 107.4998 370.85352 106.76172 C 369.97875 105.34631 367 107.55805 367 109.62305 C 367 111.77522 365.67393 111.26094 362.8125 108 C 360.43841 105.29444 356.82149 103.86488 357.11914 105.75 C 357.42803 107.70628 356.86983 108.13685 355.5 107 C 354.675 106.31531 354 104.9096 354 103.87695 C 354 102.84429 353.6625 101.99433 353.25 101.98633 C 352.8375 101.97882 351.46795 101.69714 350.20703 101.35938 C 348.94611 101.02161 347.98767 101.14028 348.07617 101.62305 C 348.46238 103.7285 347.88767 104.03025 346.375 102.51758 C 344.87447 101.01706 344.60249 101.04914 342.83594 102.94531 C 341.78348 104.075 339.8358 105 338.50781 105 C 336.20851 105 336.10756 104.73542 336.40039 99.457031 C 336.65384 94.888653 336.38157 93.739661 334.85352 92.921875 C 332.9295 91.892169 329.24829 93.17989 327.76562 95.400391 C 327.32103 96.066242 327.02463 95.762383 327.01562 94.632812 C 327.00374 93.183471 326.44117 92.873063 324.5 93.244141 C 322.82359 93.564607 322 93.274186 322 92.361328 C 322 91.612598 321.325 91 320.5 91 C 319.675 91 319 90.55 319 90 C 319 88.388243 315.29108 88.851502 313.44922 90.693359 C 311.93994 92.202644 311.63427 92.221126 310.62891 90.857422 C 310.00851 90.015882 308.45204 88.767956 307.17188 88.085938 C 305.83377 87.373049 305.07107 86.258038 305.37695 85.460938 C 305.67172 84.692788 304.73112 83.147313 303.26758 81.996094 C 300.97133 80.189859 300.51474 80.117189 299.77148 81.445312 C 299.26378 82.352514 299.3721 83.826052 300.03906 85.072266 C 301.2731 87.378106 300.38907 89.247807 299.07227 87.117188 C 298.40511 86.037706 297.81469 86.027789 295.87695 87.060547 C 293.67478 88.234242 293.60554 88.199738 294.93555 86.587891 C 296.67713 84.477253 295.17047 83.147436 291.49609 83.550781 C 290.19518 83.693585 288.89907 83.179576 288.60156 82.404297 C 288.03647 80.93169 284 80.409099 284 81.808594 C 284 82.253473 284.66124 83.490973 285.46875 84.558594 C 287.47597 87.212383 287.35655 87.905315 285 87.289062 C 283.88181 86.99665 283 87.25851 283 87.882812 C 283 88.49696 281.47522 89 279.61133 89 C 276.99757 89 276.25421 88.599727 276.36133 87.25 C 276.47068 85.872151 275.77985 85.534303 273.11328 85.662109 C 271.25054 85.751389 269.45054 86.227004 269.11328 86.71875 C 265.53551 91.935357 265.29884 92.071652 259.6875 92.138672 C 254.77231 92.197382 254.07652 92.460204 253.80664 94.353516 C 253.61209 95.718279 252.89028 96.398355 251.82617 96.222656 C 250.00313 95.921649 248.48199 99.178393 249.48242 101.24023 C 249.56117 101.40252 249.59151 101.49787 249.58008 101.5293 C 249.5796 101.53021 249.57869 101.53439 249.57812 101.53516 L 249.57617 101.53516 L 249.57617 101.53711 L 249.57422 101.53711 L 249.57227 101.53906 L 249.57031 101.53906 C 249.56937 101.53928 249.56548 101.54093 249.56445 101.54102 C 249.46343 101.53618 248.99154 100.97989 248.29688 100.02148 C 245.11694 95.634257 243.05236 94 240.69141 94 C 237.5771 94 235.20927 95.984724 234.82031 98.921875 C 234.6439 100.25379 233.99625 101.50856 233.38086 101.71094 C 232.70884 101.93192 232.41215 101.16411 232.63867 99.789062 C 233.16191 96.612873 229.87398 92.958019 227.13672 93.673828 C 225.9616 93.981131 225 94.934291 225 95.791016 C 225 97.023642 224.51702 96.894407 222.68555 95.173828 C 219.29795 91.991343 216.07761 92.336133 214.68359 96.029297 C 214.02887 97.763863 212.9264 98.939065 212.10352 98.779297 C 210.12045 98.394268 209.47757 96 211.35742 96 C 214.48578 96 214.42647 91.761622 211.28125 90.554688 C 209.09215 89.71465 206 90.863932 206 92.517578 C 206 93.278185 205.25571 94.316919 204.3457 94.826172 C 203.31823 95.40119 202.93625 96.390846 203.33789 97.4375 C 203.80232 98.647779 203.49333 99.074156 202.24219 98.947266 C 201.28396 98.850086 199.9375 98.821436 199.25 98.884766 C 197.78312 99.0199 197.53022 104 198.99023 104 C 200.56033 104 196.78549 108.00808 193.67383 109.64453 C 191.04692 111.02605 190.81015 110.99306 190.33594 109.17969 C 189.62162 106.44811 186.19137 105.10367 183.31836 106.42969 C 181.96559 107.05404 181.21655 108.07979 181.52148 108.89062 C 181.80901 109.65522 181.1338 110.91817 180.02148 111.69727 C 177.92673 113.1645 177.21354 117 179.03516 117 C 180.23825 117 178.33356 121.09046 176.60938 122.20898 C 175.82827 122.71571 175.82396 123.22435 176.5957 123.99609 C 177.36743 124.76781 178.50415 124.7516 180.58789 123.93945 C 184.9165 122.25237 192.02518 121.77662 193.58398 123.07031 C 194.72512 124.01737 194.66867 124.71356 193.23438 127.35156 C 192.29258 129.08373 191.51772 131.175 191.51172 132 C 191.50549 132.825 190.4875 133.64456 189.25 133.82031 C 188.0125 133.99606 187 133.70242 187 133.16797 C 187 131.72356 181.10325 129.93549 178.49609 130.58984 C 176.85934 131.00064 176.3679 131.69363 176.73047 133.08008 C 177.30819 135.28931 176.71723 135.46507 174.13672 133.85352 C 171.71608 132.34181 166.62282 133.5747 167.35938 135.49414 C 167.6645 136.28927 166.69116 137.92374 165.12891 139.23828 C 163.60428 140.52118 162.51321 142.0416 162.70508 142.61719 C 163.34373 144.53314 152.66168 155.20224 149.78906 155.51758 C 146.25975 155.905 144.75207 156.91116 145.35352 158.47852 C 145.62304 159.18086 145.31962 160.27999 144.67969 160.91992 C 143.79503 161.80458 143.87364 162.33631 145.00781 163.13672 C 145.67407 163.60692 145.98486 163.85142 145.92773 163.91406 C 145.86673 163.96529 145.50877 163.87236 144.84766 163.66211 C 142.73509 162.99024 139.4697 165.33229 140.40625 166.84766 C 140.79774 167.48109 142.44867 168 144.07422 168 L 147.0293 168 L 144.50781 171.75 C 143.12129 173.8125 141.73305 176.175 141.42188 177 C 140.13004 180.42503 139.14295 181.48297 137.51953 181.18359 C 135.28833 180.77212 131.9792 183.78357 132.67383 185.59375 C 132.97058 186.36707 132.71626 187 132.10742 187 C 131.49857 187 131 187.86702 131 188.92773 C 131 189.98845 130.28076 191.57666 129.40234 192.45508 C 128.52392 193.3335 128.0573 194.7073 128.36523 195.50977 C 128.69316 196.36433 128.07391 197.42553 126.86914 198.07031 C 125.55255 198.77492 124.98596 199.84037 125.29688 201.0293 C 125.57376 202.08814 124.96882 203.62191 123.89062 204.59766 C 122.8503 205.53915 122 207.14575 122 208.16797 C 122 209.19019 121.4375 210.9356 120.75 212.04492 C 119.72576 213.69758 119.76078 214.22248 120.94141 214.95703 C 122.63398 216.0101 127.80801 213.66244 128.6543 211.45703 C 129.02532 210.49017 129.71278 210.29868 130.74609 210.87695 C 131.59214 211.35042 133.19094 211.50066 134.29883 211.21094 C 135.65897 210.85526 136.08071 211.06021 135.59766 211.8418 C 135.2042 212.47843 133.58986 213 132.00977 213 C 129.98006 213 128.52948 213.85236 127.06836 215.9043 C 124.45064 219.58055 124.25921 221.93723 126.75 219.82617 C 132.3685 215.06423 137.7586 213.29112 142.63477 214.59961 C 145.32395 215.32123 144.73512 218.27644 141.37695 220.91797 C 138.74803 222.98588 138.34449 224.569 140.25 225.33789 C 140.99674 225.63921 140.79544 225.87467 139.75 225.92188 C 138.7875 225.96529 138 226.6535 138 227.45117 C 138 228.24884 137.27799 229.30355 136.39648 229.79688 C 135.51497 230.29019 134.96294 231.55115 135.16992 232.59766 C 135.46566 234.09293 136.34504 234.47096 139.27344 234.36133 C 141.77802 234.26757 143 234.65654 143 235.55078 C 143 237.88339 144.87109 238.15376 148.73828 236.37695 C 153.62933 234.12972 153.70008 234.05463 151.9707 232.96094 C 150.7369 232.18066 150.78223 232.02853 152.25 232.01562 C 153.33844 232.0061 154 232.75607 154 234 C 154 236.40385 154.2614 236.43268 158.07812 234.45898 C 162.59445 232.1235 169.77923 232.23955 174.79297 234.72852 C 181.47013 238.04326 184.5614 238.4386 186.74219 236.25781 C 188.57135 234.42865 188.65325 234.43927 190.35352 236.69336 C 192.41138 239.42153 198.03893 239.86313 200.03906 237.45312 C 200.94953 236.35609 201.52906 236.23746 202.0293 237.04688 C 202.54499 237.88127 203.51027 237.79602 205.61719 236.73242 C 207.20267 235.93205 210.34758 234.99566 212.60547 234.65039 C 216.87678 233.99725 218.87673 235.19043 220.31641 239.25 C 220.66706 240.23878 221.95225 241 223.26953 241 C 224.55179 241 226.08724 241.48763 226.68359 242.08398 C 227.46262 242.86301 228.23099 242.51111 229.41211 240.83398 C 230.45605 239.35164 231.31897 238.89335 231.77734 239.57812 C 232.17434 240.17121 233.94189 241.36436 235.70312 242.22852 C 238.68837 243.69324 239.15549 243.66415 242.5957 241.82031 C 246.74255 239.59773 247.26579 239.93753 248.96875 245.94336 C 249.99233 249.55322 249.47361 251.38385 248.07031 249.11328 C 246.91337 247.24131 243 248.68572 243 250.98438 C 243 252.00149 243.50625 253.00273 244.125 253.20898 C 244.74375 253.41523 245.25 254.81719 245.25 256.32422 C 245.25 259.72437 248.10526 261.54922 251 260 C 252.1 259.4113 253 258.27049 253 257.46484 C 253 255.74458 254.58515 255.52018 255.5625 257.10156 C 255.94624 257.72242 257.48009 257.9532 259.08203 257.63281 C 260.644 257.32041 262.20231 257.51986 262.54492 258.07422 C 262.88754 258.62858 264.14276 258.78172 265.33398 258.41602 C 266.52519 258.05032 267.16553 258.10298 266.75781 258.5332 C 265.70597 259.64306 267.91054 262 270 262 C 272.19824 262 275.61703 269.62643 276.54102 276.5918 C 277.12438 280.98934 276.90513 281.96303 274.75 284.55078 C 270.45006 289.71385 269.04238 296.16571 268.92773 311.25 C 268.84966 321.52159 268.50724 325 267.57422 325 C 266.88727 325 261.86419 324.31043 256.41211 323.4668 C 244.75223 321.66261 173.89664 315.01781 166.21094 315.00781 C 157.42293 314.99633 150.63829 319.67906 145.97266 328.97852 C 144.7371 331.44123 142.60351 335.15373 141.23047 337.22852 C 138.76189 340.95876 138.66051 340.99986 132.11719 341.00586 C 114.89218 341.02037 109.36969 347.63576 114.43164 362.19141 C 115.734 365.93634 116.47597 369 116.08008 369 C 115.68419 369 113.52041 370.575 111.27148 372.5 C 109.02255 374.425 106.80437 375.99242 106.3418 375.98242 C 105.87923 375.97268 103.29005 370.50424 100.58789 363.83008 C 94.806904 349.55136 90.292101 343.9456 83 341.98828 C 78.795076 340.85961 71.285947 341.11258 66.357422 342.55078 C 64.361197 343.1333 64.040292 342.44021 61.626953 332.33789 C 54.610277 302.96585 52.402937 274.1673 55.123047 247.5 C 57.403878 225.13928 64.812992 196.66535 73.728516 176 C 79.450693 162.73653 91.897571 139.8802 94.966797 137 C 95.259845 136.725 95.95 135.76599 96.5 134.86914 C 103.76098 123.02918 118.6804 105.84957 134.63477 90.957031 C 153.74779 73.116059 185.9886 53.112501 208.77344 44.958984 C 213.27629 43.347643 215.39636 42.039611 214.22656 42.056641 z M 356.96875 109 C 357.50148 109 357.67791 109.675 357.36133 110.5 C 357.04474 111.325 356.60874 112 356.39258 112 C 356.17643 112 356 111.325 356 110.5 C 356 109.675 356.43601 109 356.96875 109 z M 184.41992 110 C 185.11806 110 186.46408 110.855 187.41016 111.90039 C 188.35623 112.94579 188.75481 114.03413 188.29492 114.31836 C 187.83504 114.60258 186.48901 113.7476 185.30469 112.41797 C 183.97806 110.9286 183.6379 110 184.41992 110 z M 425.51172 270 C 425.72986 270.00681 426.04144 270.05575 426.44922 270.13477 C 427.48613 270.33571 428.52109 271.0625 428.75 271.75 C 429.34396 273.53389 427.4905 273.29603 425.9043 271.38477 C 425.0344 270.33661 424.85731 269.97957 425.51172 270 z M 76 353 C 79.857418 353 83.70774 355.84598 85.751953 360.20898 C 88.033982 365.07914 116 434.6665 116 435.47461 C 116 435.47574 116.00009 435.47739 116 435.47852 C 115.95305 435.76465 112.9335 435.99808 109.25 435.99609 L 102.5 435.99219 L 99.154297 427.47656 L 95.808594 418.95898 L 75.796875 419.23047 L 55.785156 419.5 L 52.472656 427.5 L 49.160156 435.5 L 42.132812 435.79297 L 35.105469 436.08594 L 50.160156 398.79297 C 58.440535 378.28196 65.849921 360.27077 66.625 358.76758 C 68.163896 355.78304 72.686887 353 76 353 z M 241 353 C 244.50272 353 248.50638 355.65744 250.29688 359.17188 C 252.06137 362.63527 279.84463 431.17982 280.72852 434.25 C 281.17364 435.79613 280.43386 435.99819 274.36719 435.99219 L 267.5 435.98633 L 264.08594 427.47266 L 260.67188 418.95898 L 240.72852 419.23047 L 220.78516 419.5 L 217.47266 427.5 L 214.16016 435.5 L 207.04883 435.79492 L 199.93555 436.08984 L 201.54102 432.29492 C 202.42392 430.20796 209.23827 413.425 216.68359 395 C 224.12892 376.575 230.85327 360.27077 231.62695 358.76758 C 233.16283 355.78352 237.68597 353 241 353 z M 475.77344 353.5 C 484.23019 353.5 485.41619 355.03316 497.62891 381.71289 C 503.60772 394.77412 510.15541 408.84443 512.17773 412.98047 L 515.85352 420.5 L 515.92773 387.25 L 516 354 L 522.5 354 L 529 354 L 529 392.09961 L 529 430.19922 L 525.59961 433.59961 C 523.06804 436.13118 521.34395 436.99346 518.84961 436.97656 C 514.72434 436.94852 509.28967 434.37313 507.45703 431.57617 C 506.70332 430.42586 500.19667 416.88884 492.99805 401.49609 C 485.79943 386.10334 479.48038 373.07999 478.95508 372.55469 C 478.34827 371.94788 478 383.34314 478 403.80078 L 478 436 L 471.4668 436 L 464.93164 436 L 465.2168 397.52148 L 465.5 359.04297 L 468.27344 356.27148 C 470.52132 354.02439 471.94099 353.5 475.77344 353.5 z M 298 354 L 304.46094 354 L 310.92188 354 L 311.21094 386.96484 C 311.47437 417.0329 311.65648 420.0872 313.2832 421.71484 C 314.85665 423.28919 317.47681 423.53562 335.5332 423.80664 L 356 424.11523 L 356 430.05664 L 356 436 L 336.25 435.9668 C 319.51938 435.93915 315.66131 435.64459 311.00977 434.03906 C 304.70068 431.86142 300.60477 427.83553 299.06836 422.30273 C 298.42788 419.99629 298.00886 405.8074 298.00586 386.25 L 298 354 z M 406.76172 354 C 422.57517 354 429.10615 355.41254 433.23828 359.72656 C 438.57548 365.29871 439 367.83628 439 394.10156 C 439 410.01365 438.58944 419.63657 437.79883 422.27539 C 436.22515 427.52786 431.4608 432.47053 426.48828 434.00781 C 421.50647 435.54796 395.8103 436.23226 390.7168 434.96094 C 382.43911 432.89485 376.95106 428.0821 375.04492 421.21875 C 373.60986 416.0516 373.6994 374.07661 375.1582 368.2832 C 376.6997 362.16135 382.16135 356.6997 388.2832 355.1582 C 390.81402 354.52093 399.1301 354 406.76172 354 z M 190.5 354.00195 L 197.25 354.00195 C 200.90449 354.00121 203.90518 354.21641 203.99805 354.48242 C 203.99832 354.48348 203.99982 354.48722 204 354.48828 C 204.00009 354.48934 204 354.49308 204 354.49414 C 204 355.32435 173.94196 430.21272 172.45312 433.0918 C 171.68743 434.57249 169.62965 436.281 167.88086 436.89062 C 163.85675 438.29343 164.1421 438.31726 160 436.24805 C 156.61464 434.55687 155.98725 433.22254 140.83398 395.5 C 132.21745 374.05 125.12998 355.91771 125.08398 355.20508 C 125.02156 354.23728 126.69849 353.98423 131.71289 354.20508 L 138.42773 354.5 L 150.96289 386.17383 C 157.85793 403.59468 163.7811 418.12511 164.125 418.46484 C 164.4689 418.80456 169.59446 406.80159 175.51562 391.79102 C 181.4368 376.78045 187.23069 362.13869 188.39062 359.25195 L 190.5 354.00195 z M 406.5 365.91602 C 399.43808 365.92829 392.42874 366.34058 391.14453 367.14258 C 387.59449 369.35961 387.00023 373.42564 387.01562 395.39844 C 387.03142 417.99228 387.46687 420.37975 392.01953 422.75586 C 393.78488 423.67727 398.48874 423.97098 408.33984 423.77539 C 427.26021 423.39974 426 425.38652 426 395.95508 C 426 383.40181 425.5725 372.00237 425.04883 370.625 C 424.52515 369.24764 423.22785 367.65617 422.16602 367.08789 C 420.67648 366.29069 413.56192 365.90374 406.5 365.91602 z M 75.708984 371.26953 C 75.112939 371.46313 61.019806 405.46725 61.003906 406.75 C 60.995804 407.40361 90.004323 406.90396 90.033203 406.25 C 90.111986 404.46626 76.423192 371.03755 75.708984 371.26953 z M 240.66016 371.29102 C 240.03689 371.48966 226.06437 405.30822 226.00977 406.75 C 226.00457 406.8875 232.70578 407 240.90234 407 L 255.80664 407 L 248.65234 389.01172 C 244.71828 379.11848 241.12162 371.14396 240.66016 371.29102 z M 429.8418 478.32031 C 429.53711 478.30408 428.825 478.55847 428 479 C 426.9 479.5887 426 480.29531 426 480.57031 C 426 480.84531 426.9 480.5887 428 480 C 429.1 479.4113 430 478.70469 430 478.42969 C 430 478.36094 429.94336 478.32572 429.8418 478.32031 z M 419.8418 484.32031 C 419.53711 484.30408 418.825 484.55847 418 485 C 416.9 485.5887 416 486.29531 416 486.57031 C 416 486.84531 416.9 486.5887 418 486 C 419.1 485.4113 420 484.70469 420 484.42969 C 420 484.36094 419.94336 484.32572 419.8418 484.32031 z M 406.8418 491.32031 C 406.53711 491.30408 405.825 491.55847 405 492 C 403.9 492.5887 403 493.29531 403 493.57031 C 403 493.84531 403.9 493.5887 405 493 C 406.1 492.4113 407 491.70469 407 491.42969 C 407 491.36094 406.94336 491.32572 406.8418 491.32031 z M 394.21094 497.07422 C 393.82231 497.06278 393.24118 497.36244 392.73242 497.875 C 391.75216 498.86262 391.86777 498.97823 393.29297 498.43555 C 394.27919 498.06002 394.83523 497.50125 394.52734 497.19336 C 394.45037 497.11639 394.34048 497.07803 394.21094 497.07422 z M 381.23438 502.44336 C 381.05972 502.45399 380.83083 502.51243 380.55273 502.61914 C 379.69916 502.94669 379 503.39126 379 503.60742 C 379 504.41733 380.90493 503.96193 381.49219 503.01172 C 381.73305 502.622 381.61861 502.41997 381.23438 502.44336 z " />
    <path
       style="font-size:27.7935px;font-family:'Continuum Medium';-inkscape-font-specification:'Continuum Medium, Normal';stroke-width:2.31582"
       d="m 157.10208,481.54154 v -2.80714 h 11.22857 v 2.80714 h -4.19682 v 16.64831 h -2.83493 v -16.64831 z m 13.09075,12.81281 v -6.53148 q 0,-4.22461 4.53034,-4.22461 h 3.61315 q 1.77879,0 2.80715,1.00057 1.02836,0.97277 1.02836,2.72376 v 1.7232 l -9.53317,4.44696 v 0.63925 q 0.16676,0.94498 0.44469,1.25071 0.33352,0.38911 1.22292,0.38911 h 8.03232 v 2.41803 h -8.17129 q -1.7232,0 -2.86273,-1.05615 -1.11174,-1.05616 -1.11174,-2.77935 z m 2.44583,-3.52978 7.08734,-3.30742 v -0.22235 q 0,-1.25071 -1.47306,-1.25071 h -3.97447 q -1.63981,0 -1.63981,1.83437 z m 12.61824,7.36528 v -10.72829 q 0,-0.36132 0.0556,-0.83381 0.16676,-1.44526 0.80601,-2.08451 0.66704,-0.66704 2.1123,-0.88939 0.36132,-0.0556 0.63926,-0.0556 h 1.36188 v 2.44583 h -1.19512 q -1.33409,0 -1.33409,1.47306 v 10.6727 z m 7.03177,0 v -10.72829 q 0,-0.36132 0.0556,-0.83381 0.16676,-1.44526 0.80601,-2.08451 0.66705,-0.66704 2.11231,-0.88939 0.36132,-0.0556 0.63925,-0.0556 h 1.36188 v 2.44583 h -1.19512 q -1.33409,0 -1.33409,1.47306 v 10.6727 z m 7.03176,-3.8355 v -6.53148 q 0,-4.22461 4.53034,-4.22461 h 3.61315 q 1.77879,0 2.80715,1.00057 1.02836,0.97277 1.02836,2.72376 v 1.7232 l -9.53318,4.44696 v 0.63925 q 0.16677,0.94498 0.4447,1.25071 0.33352,0.38911 1.22291,0.38911 h 8.03233 v 2.41803 h -8.17129 q -1.7232,0 -2.86273,-1.05615 -1.11174,-1.05616 -1.11174,-2.77935 z m 2.44582,-3.52978 7.08735,-3.30742 v -0.22235 q 0,-1.25071 -1.47306,-1.25071 h -3.97447 q -1.63982,0 -1.63982,1.83437 z m 20.45601,3.55757 V 487.267 q 0,-1.77878 1.05615,-2.72376 1.08394,-0.94498 2.89052,-0.94498 h 5.66988 v -4.86386 h 2.44582 v 15.34201 q 0,1.55644 -1.05615,2.83494 -1.02836,1.2785 -2.58479,1.2785 h -4.78049 q -0.63925,0 -1.44526,-0.36132 -2.19568,-0.97277 -2.19568,-3.44639 z m 2.47362,0 q 0.22234,1.38968 1.2785,1.38968 h 4.2802 q 0.55587,0 0.94498,-0.36132 0.63925,-0.4447 0.63925,-1.38968 v -6.42029 q 0,-1.55644 -1.3063,-1.55644 h -4.2802 q -1.58423,0 -1.58423,1.61202 v 6.55927 q 0,0.11117 0.0278,0.16676 z m 12.97956,-0.0278 v -6.53148 q 0,-4.22461 4.53034,-4.22461 h 3.61315 q 1.77879,0 2.80715,1.00057 1.02836,0.97277 1.02836,2.72376 v 1.7232 l -9.53317,4.44696 v 0.63925 q 0.16676,0.94498 0.44469,1.25071 0.33352,0.38911 1.22292,0.38911 h 8.03232 v 2.41803 h -8.17129 q -1.7232,0 -2.86273,-1.05615 -1.11174,-1.05616 -1.11174,-2.77935 z m 2.44583,-3.52978 7.08734,-3.30742 v -0.22235 q 0,-1.25071 -1.47306,-1.25071 h -3.97447 q -1.63981,0 -1.63981,1.83437 z m 18.03796,12.11797 h 1.72319 q 1.52865,0 2.39025,-1.2785 0.72263,-1.11174 0.72263,-2.72377 v -15.34201 h -2.44583 v 15.34201 q 0,0.22235 -0.0278,0.30573 -0.0556,0.63925 -0.33353,0.88939 -0.25014,0.25015 -0.91718,0.38911 h -1.11174 z m 1.97334,-22.54053 q 0,-0.69484 0.47249,-1.16733 0.47249,-0.50028 1.16732,-0.50028 0.69484,0 1.16733,0.52808 0.50028,0.50028 0.50028,1.19512 0,0.69483 -0.47249,1.16732 -0.47249,0.47249 -1.16732,0.47249 -0.72263,0 -1.19512,-0.47249 -0.47249,-0.50028 -0.47249,-1.22291 z m 6.2813,13.95234 v -6.53148 q 0,-4.22461 4.53034,-4.22461 h 3.61316 q 1.77878,0 2.80714,1.00057 1.02836,0.97277 1.02836,2.72376 v 1.7232 l -9.53317,4.44696 v 0.63925 q 0.16676,0.94498 0.4447,1.25071 0.33352,0.38911 1.22291,0.38911 h 8.03232 v 2.41803 h -8.17129 q -1.7232,0 -2.86273,-1.05615 -1.11174,-1.05616 -1.11174,-2.77935 z m 2.44583,-3.52978 7.08734,-3.30742 v -0.22235 q 0,-1.25071 -1.47305,-1.25071 h -3.97447 q -1.63982,0 -1.63982,1.83437 z m 12.61824,3.61316 v -10.83947 h 2.44583 l 0.0278,11.20078 q 0.19456,0.91719 1.63982,0.91719 h 3.8633 q 0.88939,0 1.25071,-0.33352 0.3891,-0.36132 0.3891,-1.25071 v -10.53374 h 2.44583 v 10.83947 q 0,3.75212 -4.11344,3.75212 h -3.8355 q -4.11344,0 -4.11344,-3.75212 z m 13.92454,3.75212 5.19738,-7.53204 -4.89165,-7.05955 h 3.0017 l 3.36301,4.91945 3.36301,-4.91945 h 3.0017 l -4.89166,7.05955 5.22518,7.53204 h -2.94611 l -3.77991,-5.41973 -3.66875,5.41973 z m 22.51273,-6.36471 q 0,-0.75043 0.61146,-1.80658 0.38911,-0.69484 0.97277,-1.02836 l 1.94555,-1.11174 -1.3063,-1.52864 q -0.16676,-0.16676 -0.25014,-0.30573 -0.55587,-0.72263 -0.66704,-1.77878 -0.0278,-0.13897 -0.0278,-0.36132 v -1.61202 q 0,-0.91719 0.91718,-2.08452 1.16733,-1.47305 3.64095,-1.47305 h 2.25127 q 2.44583,0 3.61316,1.80658 0.61145,0.94498 0.61145,1.77878 v 1.91775 q 0,1.3063 -1.2785,2.41804 -0.27793,0.33352 -0.55587,0.4169 l -2.36244,1.41747 4.19681,4.16902 0.0834,-1.02836 v -3.30742 h 2.80714 v 3.91888 q 0,1.58423 -0.52808,2.75156 l 3.08508,3.19625 h -3.94668 l -0.88939,-1.05615 q -1.47305,1.05615 -3.44639,1.05615 h -4.97504 q -1.05615,0 -2.36245,-0.75042 -2.1401,-1.22292 -2.1401,-3.47419 z m 2.72377,1.86216 q 0,0.69484 0.52807,1.11174 0.55587,0.41691 1.25071,0.41691 h 4.7249 q 1.41746,0 1.41746,-0.25015 0,-0.0556 -0.0556,-0.11117 l -4.97504,-4.97504 -2.1123,1.25071 q -0.25015,0.13897 -0.52808,0.61146 -0.25014,0.47249 -0.25014,0.75042 z m 1.44526,-9.72772 0.25014,0.61145 q 0.0834,0.19456 1.63982,1.83438 l 3.0017,-1.91776 q 0.3891,-0.25014 0.3891,-0.88939 v -0.66704 q 0,-0.30573 -0.27793,-0.77822 -0.27794,-0.61146 -1.19512,-0.61146 l -2.33466,-0.0278 h -0.13896 q -0.0834,0.0278 -0.13897,0.0278 -1.2785,0.27794 -1.2785,1.44526 v 0.52808 q 0,0.25014 0.0834,0.4447 z m 23.84679,10.42256 V 487.267 q 0,-1.77878 1.05615,-2.72376 1.08395,-0.94498 2.89053,-0.94498 h 5.66987 v -4.86386 h 2.44583 v 15.34201 q 0,1.55644 -1.05615,2.83494 -1.02836,1.2785 -2.5848,1.2785 h -4.78048 q -0.63925,0 -1.44526,-0.36132 -2.19569,-0.97277 -2.19569,-3.44639 z m 2.47362,0 q 0.22235,1.38968 1.2785,1.38968 h 4.2802 q 0.55587,0 0.94498,-0.36132 0.63925,-0.4447 0.63925,-1.38968 v -6.42029 q 0,-1.55644 -1.30629,-1.55644 h -4.2802 q -1.58423,0 -1.58423,1.61202 v 6.55927 q 0,0.11117 0.0278,0.16676 z m 12.56265,-9.422 0.52807,-6.22574 h 2.08452 l -0.55587,6.22574 z m 5.58652,8.44923 V 478.7344 h 2.80714 v 14.31365 q 0,2.33466 2.1401,2.33466 h 3.97447 q 1.13953,0 1.61202,-0.50029 0.50029,-0.50028 0.50029,-1.66761 V 478.7344 h 2.83493 v 14.67497 q 0,3.22404 -2.83493,4.41916 -0.8616,0.36132 -1.66761,0.36132 h -4.83607 q -0.83381,0 -1.7232,-0.36132 -2.80714,-1.13953 -2.80714,-4.41916 z m 17.25978,4.78048 V 478.7344 h 2.44583 v 4.86386 h 2.50141 v 2.44583 h -2.50141 v 12.14576 z m 6.39248,-3.58536 v -7.58763 q 0,-3.0017 3.25184,-3.3908 0.11118,0 0.33353,-0.0278 h 4.78048 q 0.19455,0 0.58366,0.0556 3.30743,0.47249 3.30743,3.36301 v 7.58763 q 0,2.00113 -2.00113,3.14066 -0.77822,0.4447 -1.88996,0.4447 h -4.55814 q -2.77935,0 -3.64094,-2.64038 -0.30573,-0.88939 -0.16677,-0.94498 z m 4.19682,1.16733 h 3.91889 q 1.6954,0 1.6954,-1.86217 v -6.11457 q 0,-1.75099 -1.6954,-1.75099 h -3.91889 q -1.75099,0 -1.75099,1.75099 v 6.03119 q 0,1.94555 1.75099,1.94555 z m 11.45092,7.17072 V 487.2948 q 0,-1.77879 1.00057,-2.72377 1.02836,-0.97277 2.80714,-0.97277 h 4.58593 q 1.55643,0 2.39024,0.61146 1.44526,1.08395 1.44526,2.91832 v 7.00396 q 0,1.66761 -0.91718,2.69597 -1.19513,1.36188 -2.80715,1.36188 h -6.05898 v 4.75269 z m 2.47362,-8.61599 q 0.0834,0.75043 0.4169,1.02836 0.50029,0.41691 0.8894,0.41691 h 4.64151 q 0.11118,0 0.16676,-0.0278 0.97277,-0.19455 1.16733,-1.13953 0.0278,-0.0834 0.0278,-0.27794 v -7.14293 q -0.0556,-0.58366 -0.27793,-0.80601 -0.19456,-0.22235 -0.77822,-0.33352 h -4.55813 q -1.7232,0 -1.7232,1.47306 v 6.53147 q 0,0.22235 0.0278,0.27793 z m 13.11854,3.8633 h 2.44582 v -14.59159 h -2.44582 z m -0.4447,-17.78784 q 0,-0.69484 0.47249,-1.16733 0.47249,-0.50028 1.16733,-0.50028 0.69483,0 1.16732,0.52808 0.50029,0.50028 0.50029,1.19512 0,0.69483 -0.47249,1.16732 -0.47249,0.47249 -1.16733,0.47249 -0.72263,0 -1.19512,-0.47249 -0.47249,-0.50028 -0.47249,-1.22291 z m 6.3091,13.95234 v -6.53148 q 0,-4.22461 4.53034,-4.22461 h 3.61315 q 1.77879,0 2.80715,1.00057 1.02836,0.97277 1.02836,2.72376 v 1.7232 l -9.53317,4.44696 v 0.63925 q 0.16676,0.94498 0.44469,1.25071 0.33352,0.38911 1.22292,0.38911 h 8.03232 v 2.41803 h -8.17129 q -1.7232,0 -2.86273,-1.05615 -1.11174,-1.05616 -1.11174,-2.77935 z m 2.44583,-3.52978 7.08734,-3.30742 v -0.22235 q 0,-1.25071 -1.47306,-1.25071 h -3.97447 q -1.63981,0 -1.63981,1.83437 z m 12.14577,7.36528 v -2.41803 h 7.44865 q 0.33353,0 0.58367,-0.27794 0.4169,-0.33352 0.4169,-1.19512 v -1.11174 q 0,-1.36188 -1.41747,-1.36188 h -3.30742 q -2.36245,0 -3.27964,-1.58423 -0.38911,-0.66705 -0.38911,-1.44526 v -1.86217 q 0,-1.55643 0.83381,-2.44583 0.8616,-0.88939 2.39024,-0.88939 h 7.64321 v 2.44583 h -7.42086 q -1.02836,0 -1.02836,1.05615 v 1.05616 q 0,0.52807 0.38911,0.86159 0.38911,0.33353 0.94498,0.33353 h 3.61315 q 0.4169,0 0.66704,0.0556 1.25071,0.27794 2.02893,1.16733 0.77822,0.88939 0.77822,2.1401 v 2.27907 q 0,1.50085 -1.2785,2.557 -1.05616,0.63925 -1.83437,0.63925 z"
       id="text8"
       transform="scale(1.0568335,0.94622284)"
       aria-label="Terre de jeux &amp; d'Utopies" />
  </g>
</svg>
